<svg xmlns="http://www.w3.org/2000/svg" version="1.1" xmlns:xlink="http://www.w3.org/1999/xlink" viewBox="0 0 13.76523272233807 10.46313269962501"><g transform="matrix(0.8382467503963956,0,0,0.8382467503963956,1.9595084197930657,6.871366541210019)"><g transform="matrix(1,0,0,1,0,0)" clip-path="url(#SvgjsClipPath47721)"><g clip-path="url(#SvgjsClipPath4771910602f79-ad3f-4f18-b04d-f78fa97052cc)"><path d=" M 4.47075063219491 -3.356088273050148 C 4.512727876630464 -3.3605062567183412 4.555165181622718 -3.3562926235985553 4.59545406229174 -3.3437063721894744 L 5.4984484036312065 -4.855182698682279 C 5.480726069683137 -4.872956145833058 5.4652780348278664 -4.8928603445888905 5.4524584861486876 -4.914438938515517 L 4.058610217832332 -4.502298524152943 L 4.058610217832332 -4.494338730742506 C 4.073529492053843 -4.351795399903619 4.01927349927822 -4.210729818686984 3.912680671974338 -4.114921911511717 L 4.402650177461177 -3.341937529209378 C 4.424490221827878 -3.3490250518293108 4.44702239440581 -3.3537686671088833 4.46986621070486 -3.356088273050148 Z M 4.800639847982984 -2.9607518669984927 L 5.675332701640901 -2.4584004606509726 C 5.717621468250003 -2.4994846570939284 5.772389922458272 -2.5253129622035098 5.830990883889428 -2.5318074443249903 L 5.857523528590879 -2.5318074443249903 L 6.034407826600569 -3.150902487358909 C 5.9636581087535765 -3.187750513210593 5.906612623758273 -3.2463461472546955 5.871674272431656 -3.3180581489780554 L 4.810368484373515 -3.0474251730232367 C 4.810932861219805 -3.017475852345844 4.806753869556159 -2.9876259118912327 4.797986583512837 -2.958983024018387 Z M 5.607232246907167 -2.332812609064093 C 5.600050291538663 -2.303914783687779 5.597955349383073 -2.2739870386079293 5.601041296476828 -2.2443704600592524 L 5.601041296476828 -2.2364106666488244 L 4.83601670758492 -1.9012149219204506 C 4.783549692429631 -1.9738941888553976 4.7049108977366165 -2.023360527452602 4.6166801780529045 -2.0391846743680135 L 4.591031954841499 -2.7520283953470615 C 4.645145661673198 -2.7680206225531205 4.693802745936581 -2.7986225623414103 4.731654971759203 -2.8404705443519016 L 5.607232246907167 -2.332812609064093 Z M 6.003453074448873 -2.4937773202529163 C 6.072009402466747 -2.450426591403955 6.116970244835357 -2.3780982797674928 6.125503240075563 -2.2974357494621493 C 6.139971401242048 -2.152881931660838 6.035498544181295 -2.023572131223367 5.891131545212722 -2.007345500726272 C 5.8033868151437495 -1.9982799915713416 5.716874098143482 -2.0334154245293004 5.660297536310081 -2.101094178671401 L 4.89527294741817 -1.765898433943037 C 4.89789933154793 -1.7551470382616392 4.899673675904677 -1.7442052480617027 4.900579476358462 -1.7331748388112418 C 4.910233845435623 -1.6419225084883484 4.88322388973653 -1.5505744629217766 4.825497186284497 -1.47924549026553 C 4.767770482832465 -1.4079165176092747 4.684060740661171 -1.3624557410946254 4.5928007978216 -1.3528735980904 C 4.437122954095019 -1.3368199065545783 4.28999192252746 -1.42705544069329 4.233725672861932 -1.5730945491124624 L 2.8301487681550377 -1.3599489700108043 C 2.8155527795468487 -1.2283938046848917 2.711463494638355 -1.1246723264368574 2.579857486471326 -1.1105421098171586 C 2.498620002649925 -1.1022263444836984 2.4177356833880914 -1.129295200332293 2.3578676924691635 -1.1848335149812197 L 1.4513356651695046 -0.616150496880068 C 1.456649282269988 -0.5985626134644901 1.4602043885217593 -0.5804908233512949 1.461948723050087 -0.562200785987109 C 1.477922476010224 -0.40740453949044575 1.3655402899663094 -0.26890536654900465 1.210773019876327 -0.2526532644701538 C 1.055976773379662 -0.23667951151002597 0.9174776004382115 -0.34906169755394334 0.9012254983593699 -0.5038289676439325 C 0.8852517453992303 -0.6586252141405771 0.9976339314431474 -0.7971243870820182 1.1524012015331275 -0.813376489160869 L 1.1798182677246287 -0.813376489160869 L 1.3487427723238805 -1.4528132264658993 C 1.2699545151402725 -1.498012127205655 1.2176482857288167 -1.5782808063024891 1.2081197554061778 -1.6686120700377156 C 1.2006064498021636 -1.7373022265646352 1.218888668922368 -1.8063333642771315 1.2594162018289876 -1.8623003763583243 L 0.3971052490317491 -2.916530792496068 C 0.36893731739753427 -2.9044949888113822 0.339126192357158 -2.8967440963008833 0.3086631000269042 -2.8935358337548167 C 0.15368978588597226 -2.877544991740163 0.01493540293417951 -2.9898134953250888 -0.0017688429801009143 -3.1447115369285767 C -0.017742595940240507 -3.2995077834252395 0.09463959010367651 -3.4380069563666806 0.2494068601936567 -3.4542590584455315 C 0.26118268254032323 -3.455140308499355 0.27300789744892673 -3.455140308499355 0.28478371979559325 -3.4542590584455315 L 0.6005221917428895 -4.5438663341852195 C 0.5178289252618179 -4.592561347929523 0.46305331073925654 -4.677512750093257 0.45282380290479707 -4.772931500107771 C 0.4352432846568309 -4.937396285406161 0.5537888387711689 -5.085183076202022 0.7181502499193363 -5.103705137385881 C 0.8037570688639454 -5.113465125788025 0.8893583616964562 -5.085362059839244 0.9525219447821727 -5.026760467751652 L 1.7697274015869382 -5.568026419661308 C 1.7588184465705583 -5.596453172895466 1.7516823016587577 -5.626187110027968 1.7485012858257765 -5.656468568666148 C 1.7294348899372427 -5.841768588352962 1.8639499677739786 -6.007538640157629 2.0492045924422473 -6.027041172996447 C 2.2052524861361693 -6.043397385452801 2.351938941766886 -5.9498847699882145 2.402973188461627 -5.801513693034097 L 3.6075552579076122 -5.938599023991607 C 3.6266627942411813 -6.0655229420544545 3.7292783018219677 -6.163407947512728 3.856962118101271 -6.1765084048146495 C 3.931399616620355 -6.184665371792885 4.006006859249617 -6.162704959359801 4.06415515352479 -6.115521772005083 C 4.1223034477999665 -6.068338584650365 4.159159831329257 -5.99985422614338 4.166509639618233 -5.925332701640871 C 4.1696174481304995 -5.900370451594308 4.1696174481304995 -5.875119125033348 4.166509639618233 -5.850156874986767 L 5.472800180419792 -5.254056790694108 C 5.523197765138138 -5.316502512884751 5.596403930918776 -5.356288472548134 5.676217123130937 -5.364609476950165 C 5.840325692804395 -5.382154761830443 5.987601937702688 -5.263383596589881 6.00522191742896 -5.099283029935645 C 6.017936602904891 -4.984109463187767 5.962747008241935 -4.8720055990286415 5.863714479021204 -4.811846045669898 L 6.163533364147632 -3.850479885987221 C 6.2606532544495 -3.8606208266396664 6.357820849388867 -3.8317377108449824 6.4336321140800985 -3.7701928985901807 C 6.509443378771334 -3.7086480863353697 6.557679118237765 -3.6194904208071836 6.567713985099773 -3.522359513179251 C 6.578105029893338 -3.4250965594798934 6.549337008724222 -3.327699454380315 6.487767210415694 -3.2516914553902683 C 6.426197412107165 -3.1756834564002405 6.3368947059922895 -3.127322089542738 6.239593612291799 -3.1172944707370616 C 6.217242818083472 -3.115083393028267 6.194728373256445 -3.115083393028267 6.172377579048118 -3.1172944707370616 L 5.995493281038428 -2.498199427703143 Z M 4.722810756858719 -3.2685305455353606 L 5.626689519688233 -4.779122450538113 C 5.6599651457192115 -4.76938694988339 5.694677237264255 -4.765496801692989 5.729282412533853 -4.767624971167473 L 6.029101297660276 -3.8062588114848053 C 5.905356460109046 -3.7379400917883143 5.831254981274079 -3.6051749422090045 5.838066255809808 -3.463987694836056 L 4.776760467751671 -3.1933547188812375 C 4.762286929712721 -3.221206540574325 4.7434795742750975 -3.2465815439425443 4.72104191387862 -3.2685305455353513 Z M 5.41265951909651 -5.054177533943186 L 4.018811250780154 -4.642921541070655 C 3.968686122484874 -4.746484600316929 3.880170903514985 -4.826433830354246 3.772057655056633 -4.865795756562857 L 3.914449514954439 -5.615785180123944 L 3.9232937298549246 -5.615785180123944 C 3.9966180577369883 -5.623434447020158 4.063978855992494 -5.659656763063207 4.110791085745192 -5.7166092299894675 L 5.417966048036804 -5.1205091456968095 C 5.413493073165126 -5.098698556943508 5.411710936393841 -5.076421847302415 5.412659519096513 -5.054177533943167 Z M 3.7702888120765414 -5.6423178248254064 C 3.7068169833533466 -5.673288993216335 3.6572693357953754 -5.726939312228153 3.631434638138935 -5.792669478133662 L 2.426852568692945 -5.655584147176133 C 2.422685816433833 -5.615431514611711 2.410983832400203 -5.576424901166267 2.392360130581054 -5.54060935346984 L 3.323655959602072 -4.782660136498324 C 3.3930993264637115 -4.843448680022307 3.4795484632034386 -4.881424550804417 3.5712939768156393 -4.8914439797742855 C 3.590138852616407 -4.892755246836003 3.6090520763779725 -4.892755246836003 3.62789695217874 -4.8914439797742855 L 3.7702888120765414 -5.64054898184532 Z M 2.3003802956160193 -5.427403402743643 C 2.262373721167017 -5.39668620575494 2.2179379703333004 -5.3749217563670015 2.170370336578901 -5.36372505546015 L 2.198671824260448 -3.736389513770999 C 2.268229576491635 -3.7239579048697906 2.332720398710954 -3.6917124937601344 2.3844003371706233 -3.6435252573159134 L 3.218409802286313 -4.248469556509043 C 3.194939360810902 -4.296159818715843 3.180259019185825 -4.3476908138079455 3.1750731492739384 -4.4005900527973765 C 3.1654078013403173 -4.492684556954087 3.1848968675607754 -4.585489634194346 3.2307917031469913 -4.665916499811907 L 2.2986114526359205 -5.428287824233667 Z M 4.192157862829652 -3.0155859993815044 L 2.479033436605805 -3.2490732727542926 C 2.4446888611192814 -3.1503483928954106 2.3706074524864684 -3.0704944069665308 2.274732072404612 -3.0288523217322307 L 2.5621690566703563 -1.672149755997908 C 2.6141350006307174 -1.6692055450870544 2.6643002860426668 -1.6520759354341816 2.707214181038302 -1.622622152555194 L 4.223112614981344 -2.9085709990856303 C 4.2063335005226055 -2.9420482084411073 4.195841422873916 -2.9783208197408544 4.192157862829652 -3.015585999381495 Z M 2.501143973857015 -3.3941183971222406 L 2.501143973857015 -3.409153562453054 C 2.496737378576534 -3.449216470270724 2.485990215635516 -3.488324202083883 2.469304800215269 -3.5250127776494 L 3.304198686821004 -4.129957076842539 C 3.3984400495239555 -4.036628979169427 3.5295957746027136 -3.9905296896615545 3.6615049688005805 -4.004369225255669 C 3.70506413233828 -4.008877160862125 3.7476980313684454 -4.019908309562243 3.7879772418775133 -4.037092820387463 L 4.277946747364347 -3.2632240165950717 C 4.249425398892343 -3.2337980036237957 4.227161791935121 -3.198898295420584 4.212499557100761 -3.160631123749434 L 2.501143973857015 -3.3941183971222406 Z M 4.440680301533265 -2.7440686019366236 C 4.397232595153204 -2.7528876753457414 4.356202939434925 -2.770988994044972 4.320398978886677 -2.7971338913395387 L 2.804500544943633 -1.510300623319031 L 2.804500544943633 -1.5041096728886902 L 4.20365534220028 -1.7181396734804197 C 4.213124283026775 -1.8676046916928861 4.31772934397962 -1.9939875981000723 4.462790838784473 -2.031224880957576 L 4.437142615573068 -2.7440686019366143 Z M 2.0527422784024516 -3.733736249300841 L 2.0244407907209023 -5.361071790989992 C 1.961950004492346 -5.374732657311631 1.9044251755889263 -5.405330970558125 1.8581695505917926 -5.449513939994832 L 1.0418485152770773 -4.9082479880851855 C 1.0493268561276554 -4.88586073710752 1.0543677533579972 -4.862731914521255 1.0568836806079 -4.839263111861404 C 1.064245353031228 -4.772131431251432 1.0486586350820701 -4.704485075352098 1.0126626061054775 -4.6473436485209 L 1.9333453772459133 -3.68509306734818 C 1.9697072121739525 -3.708904089787942 2.010202772456179 -3.725702248127244 2.0527422784024565 -3.7346206707908935 Z M 1.7776871949973854 -3.2588019091448173 L 0.5624920676708178 -3.1305607930877977 C 0.5559385002812941 -3.087055695843085 0.5389448102954321 -3.045785305877407 0.5129644642281067 -3.0102794704412155 L 1.3761598385153888 -1.9560490543034712 C 1.40414099555337 -1.968623591755347 1.434039613693724 -1.9763972324718422 1.4646019875202383 -1.9790440130447324 C 1.4840191147549002 -1.9808116361348533 1.5035566786287617 -1.9808116361348533 1.5229738058634283 -1.9790440130447227 L 1.9359986417160553 -3.0562693879237366 C 1.8616432413129451 -3.1030826092944754 1.8064440292267028 -3.1749043113839748 1.7803404594675298 -3.2588019091448173 Z M 0.5474569023399904 -3.276490338945789 L 1.7617676081765121 -3.4047314550028087 C 1.76811903994448 -3.468314634057721 1.7906507807237624 -3.5292112307584733 1.8272147984401013 -3.5816157530124983 L 0.9038787628295166 -4.5438663341852195 C 0.8678802403800556 -4.522834000376073 0.8277485258071604 -4.509859085138208 0.7862507046530743 -4.505836210113126 C 0.772113734979977 -4.504953227172344 0.7579354428038455 -4.504953227172344 0.7437984731307505 -4.505836210113126 L 0.42806000118345433 -3.416228934373439 C 0.4810898825071799 -3.383531903870105 0.522061040173001 -3.3344906696943415 0.5448036378698508 -3.2764903389457705 Z M 2.423314882732752 -1.6411950038462093 L 2.1358778984670077 -2.997897569580542 C 2.1136589339160836 -2.997836168051553 2.0914728953512545 -2.9996110511367418 2.069546286713375 -3.003204098520831 L 1.6565214508607506 -1.9268631451318692 C 1.7208483629827842 -1.8795315993432888 1.7622642113344822 -1.807294654543818 1.7706118230770052 -1.7278683098709724 C 1.771516776972767 -1.7160933851427638 1.771516776972767 -1.7042663749972462 1.7706118230770005 -1.6924914502690376 L 2.309224510516505 -1.5368332680205032 C 2.3361300075685105 -1.5814714188934538 2.375054132822773 -1.6176371415706372 2.421546039752656 -1.6411950038462093 Z M 2.2694255434643233 -1.396210251102791 L 1.7316972775148667 -1.5527528548413692 C 1.685902606324144 -1.477171753973594 1.6073391990158974 -1.4274149293450407 1.5194361199032405 -1.4183207883540083 L 1.4920190537117393 -1.4183207883540083 L 1.3239789706025331 -0.7788840510489781 C 1.3423501386356906 -0.7680202142043075 1.3595414562059573 -0.7552749270401469 1.375275417025343 -0.7408539269768948 L 2.2818074443250014 -1.3095369450780474 C 2.2764083600300675 -1.3268016234072961 2.2728508772218867 -1.3445890374482063 2.2711943864444195 -1.3626022344809527 C 2.268541121974273 -1.3723308708714779 2.2676567004842245 -1.3847127717321612 2.2676567004842245 -1.396210251102791 Z" fill="#769687" transform="matrix(1,0,0,1,0,0)" fill-rule="evenodd"></path></g></g><g><path d=" M -0.0015 1.2015 L 0.41400000000000003 0.15149999999999997 L 0.63 0.15149999999999997 L 1.0425 1.2015 L 0.7845 1.2015 L 0.5865 0.669 Q 0.5745 0.6375 0.5625 0.6015 Q 0.5505 0.5655 0.5385 0.52725 Q 0.5265 0.489 0.51525 0.45225000000000004 Q 0.504 0.4155 0.4965 0.384 L 0.5415 0.38249999999999995 Q 0.5325 0.42000000000000004 0.52125 0.45599999999999996 Q 0.51 0.492 0.49875 0.52725 Q 0.4875 0.5625 0.47400000000000003 0.59775 Q 0.4605 0.633 0.4485 0.6705 L 0.2505 1.2015 L -0.0015 1.2015 M 0.1965 1.0005 L 0.276 0.8085 L 0.759 0.8085 L 0.837 1.0005 L 0.1965 1.0005 M 1.14745458984375 1.2015 L 1.14745458984375 0.405 L 1.37545458984375 0.405 L 1.38595458984375 0.6645 L 1.34095458984375 0.615 Q 1.35895458984375 0.5505 1.40020458984375 0.49949999999999994 Q 1.44145458984375 0.4485 1.49695458984375 0.4185 Q 1.55245458984375 0.38849999999999996 1.61545458984375 0.38849999999999996 Q 1.6424545898437501 0.38849999999999996 1.6657045898437501 0.393 Q 1.6889545898437501 0.39749999999999996 1.70845458984375 0.40349999999999997 L 1.6424545898437501 0.669 Q 1.62595458984375 0.6585 1.59820458984375 0.65175 Q 1.57045458984375 0.645 1.54045458984375 0.645 Q 1.50745458984375 0.645 1.47895458984375 0.65625 Q 1.45045458984375 0.6675 1.4309545898437501 0.6885 Q 1.41145458984375 0.7095 1.40020458984375 0.738 Q 1.38895458984375 0.7665 1.38895458984375 0.8025 L 1.38895458984375 1.2015 L 1.14745458984375 1.2015 M 2.146521240234375 1.2165 Q 2.031021240234375 1.2165 1.939521240234375 1.1625 Q 1.848021240234375 1.1085 1.794771240234375 1.01475 Q 1.741521240234375 0.921 1.741521240234375 0.8025 Q 1.741521240234375 0.684 1.794771240234375 0.59025 Q 1.848021240234375 0.49650000000000005 1.939521240234375 0.4425 Q 2.031021240234375 0.38849999999999996 2.146521240234375 0.38849999999999996 Q 2.253021240234375 0.38849999999999996 2.342271240234375 0.42600000000000005 Q 2.431521240234375 0.4635 2.484021240234375 0.531 L 2.3535212402343753 0.687 Q 2.332521240234375 0.663 2.304021240234375 0.642 Q 2.275521240234375 0.621 2.241021240234375 0.609 Q 2.206521240234375 0.597 2.169021240234375 0.597 Q 2.112021240234375 0.597 2.068521240234375 0.62325 Q 2.0250212402343752 0.6495 2.001021240234375 0.696 Q 1.977021240234375 0.7424999999999999 1.977021240234375 0.8025 Q 1.977021240234375 0.8594999999999999 2.0017712402343752 0.906 Q 2.026521240234375 0.9525 2.070021240234375 0.9795 Q 2.113521240234375 1.0065 2.169021240234375 1.0065 Q 2.208021240234375 1.0065 2.241021240234375 0.99675 Q 2.274021240234375 0.987 2.301771240234375 0.9675 Q 2.3295212402343752 0.948 2.3535212402343753 0.9195 L 2.482521240234375 1.077 Q 2.431521240234375 1.1415 2.3407712402343748 1.179 Q 2.250021240234375 1.2165 2.146521240234375 1.2165 M 2.61449560546875 1.2015 L 2.61449560546875 0.09149999999999991 L 2.84999560546875 0.09149999999999991 L 2.84999560546875 0.567 L 2.80199560546875 0.585 Q 2.81849560546875 0.531 2.86124560546875 0.48675 Q 2.90399560546875 0.4425 2.96399560546875 0.4155 Q 3.02399560546875 0.38849999999999996 3.08999560546875 0.38849999999999996 Q 3.17999560546875 0.38849999999999996 3.2414956054687503 0.42525 Q 3.30299560546875 0.46199999999999997 3.3344956054687502 0.53475 Q 3.36599560546875 0.6075 3.36599560546875 0.7125 L 3.36599560546875 1.2015 L 3.1244956054687503 1.2015 L 3.1244956054687503 0.732 Q 3.1244956054687503 0.684 3.1109956054687498 0.6525 Q 3.09749560546875 0.621 3.06974560546875 0.60525 Q 3.04199560546875 0.5895 3.00149560546875 0.591 Q 2.96999560546875 0.591 2.94299560546875 0.60075 Q 2.91599560546875 0.6105 2.89649560546875 0.62925 Q 2.8769956054687498 0.648 2.8657456054687502 0.672 Q 2.85449560546875 0.696 2.85449560546875 0.7244999999999999 L 2.85449560546875 1.2015 L 2.73599560546875 1.2015 Q 2.69399560546875 1.2015 2.66399560546875 1.2015 Q 2.63399560546875 1.2015 2.61449560546875 1.2015 M 3.58051025390625 1.2015 L 3.58051025390625 0.405 L 3.82051025390625 0.405 L 3.82051025390625 1.2015 L 3.58051025390625 1.2015 M 3.70051025390625 0.24749999999999994 Q 3.63301025390625 0.24749999999999994 3.59476025390625 0.21524999999999994 Q 3.55651025390625 0.18300000000000005 3.55651025390625 0.123 Q 3.55651025390625 0.06899999999999995 3.59551025390625 0.034499999999999975 Q 3.63451025390625 0 3.70051025390625 0 Q 3.76801025390625 0 3.80551025390625 0.03224999999999989 Q 3.84301025390625 0.0645 3.84301025390625 0.123 Q 3.84301025390625 0.17849999999999988 3.80476025390625 0.21299999999999997 Q 3.76651025390625 0.24749999999999994 3.70051025390625 0.24749999999999994 M 4.11146484375 1.2015 L 4.11146484375 0.20399999999999996 L 4.35146484375 0.20399999999999996 L 4.35146484375 1.2015 L 4.11146484375 1.2015 M 3.97046484375 0.615 L 3.97046484375 0.405 L 4.50596484375 0.405 L 4.50596484375 0.615 L 3.97046484375 0.615 M 5.014472900390625 1.2165 Q 4.882472900390625 1.2165 4.784972900390625 1.1632500000000001 Q 4.687472900390625 1.11 4.633472900390625 1.01775 Q 4.579472900390625 0.9255 4.579472900390625 0.8069999999999999 Q 4.579472900390625 0.7155 4.609472900390625 0.639 Q 4.639472900390625 0.5625 4.693472900390625 0.50625 Q 4.747472900390625 0.44999999999999996 4.8217229003906255 0.41925 Q 4.895972900390625 0.38849999999999996 4.984472900390625 0.38849999999999996 Q 5.068472900390625 0.38849999999999996 5.138222900390625 0.4185 Q 5.207972900390625 0.4485 5.258972900390625 0.5025 Q 5.309972900390625 0.5565 5.336972900390625 0.63 Q 5.363972900390625 0.7035 5.360972900390625 0.7905 L 5.359472900390625 0.855 L 4.724972900390625 0.855 L 4.690472900390625 0.72 L 5.164472900390625 0.72 L 5.138972900390625 0.7484999999999999 L 5.138972900390625 0.7185 Q 5.135972900390625 0.681 5.115722900390625 0.65175 Q 5.095472900390625 0.6225 5.062472900390625 0.606 Q 5.029472900390625 0.5895 4.987472900390625 0.5895 Q 4.928972900390625 0.5895 4.887722900390625 0.61275 Q 4.846472900390625 0.636 4.825472900390625 0.68025 Q 4.804472900390625 0.7244999999999999 4.804472900390625 0.7889999999999999 Q 4.804472900390625 0.855 4.832222900390625 0.90375 Q 4.859972900390625 0.9525 4.913222900390625 0.9795 Q 4.966472900390625 1.0065 5.039972900390625 1.0065 Q 5.090972900390625 1.0065 5.130722900390625 0.9915 Q 5.170472900390625 0.9765 5.216972900390625 0.9405 L 5.329472900390625 1.0995 Q 5.282972900390625 1.1400000000000001 5.230472900390625 1.1655 Q 5.177972900390625 1.191 5.123222900390625 1.20375 Q 5.068472900390625 1.2165 5.014472900390625 1.2165 M 5.744970703125 0.9675 L 5.656470703125 0.7875 L 6.028470703125 0.405 L 6.344970703125 0.405 L 5.744970703125 0.9675 M 5.513970703125 1.2015 L 5.513970703125 0.09149999999999991 L 5.753970703125 0.09149999999999991 L 5.753970703125 1.2015 L 5.513970703125 1.2015 M 6.053970703125 1.2015 L 5.773470703125 0.8385 L 5.942970703125 0.7065 L 6.337470703125 1.2015 L 6.053970703125 1.2015 M 6.518935546875 1.2015 L 6.518935546875 0.20399999999999996 L 6.758935546875 0.20399999999999996 L 6.758935546875 1.2015 L 6.518935546875 1.2015 M 6.377935546875 0.615 L 6.377935546875 0.405 L 6.913435546875 0.405 L 6.913435546875 0.615 L 6.377935546875 0.615 M 7.4219619140625 1.2015 L 7.8374619140625 0.15149999999999997 L 8.0534619140625 0.15149999999999997 L 8.4659619140625 1.2015 L 8.2079619140625 1.2015 L 8.009961914062501 0.669 Q 7.9979619140625005 0.6375 7.9859619140625 0.6015 Q 7.9739619140624995 0.5655 7.9619619140625 0.52725 Q 7.9499619140625 0.489 7.9387119140625 0.45225000000000004 Q 7.9274619140625 0.4155 7.9199619140625 0.384 L 7.9649619140625 0.38249999999999995 Q 7.9559619140625 0.42000000000000004 7.9447119140625 0.45599999999999996 Q 7.9334619140625 0.492 7.9222119140625 0.52725 Q 7.9109619140625 0.5625 7.8974619140625 0.59775 Q 7.8839619140625 0.633 7.8719619140625 0.6705 L 7.6739619140625 1.2015 L 7.4219619140625 1.2015 M 7.6199619140625 1.0005 L 7.6994619140625 0.8085 L 8.1824619140625 0.8085 L 8.2604619140625 1.0005 L 7.6199619140625 1.0005 M 8.57541650390625 1.2015 L 8.57541650390625 0.987 L 8.75241650390625 0.987 L 8.75241650390625 0.366 L 8.57541650390625 0.366 L 8.57541650390625 0.15149999999999997 L 9.18591650390625 0.15149999999999997 L 9.18591650390625 0.366 L 9.00741650390625 0.366 L 9.00741650390625 0.987 L 9.18591650390625 0.987 L 9.18591650390625 1.2015 L 8.57541650390625 1.2015" fill="#fcf7ee" fill-rule="nonzero"></path></g><g><path d=" M 0.45525 1.8540749999999997 L 0.5085000000000001 1.8540749999999997 L 0.5085000000000001 2.0543249999999995 Q 0.47175 2.086575 0.4215 2.1038249999999996 Q 0.37125 2.121075 0.31575000000000003 2.121075 Q 0.23700000000000002 2.121075 0.17400000000000002 2.086575 Q 0.111 2.0520749999999994 0.075 1.9909499999999996 Q 0.039 1.9298249999999997 0.039 1.8540749999999997 Q 0.039 1.7783249999999997 0.075 1.7171999999999996 Q 0.111 1.6560749999999995 0.17400000000000002 1.6215749999999995 Q 0.23700000000000002 1.5870749999999996 0.3165 1.5870749999999996 Q 0.3765 1.5870749999999996 0.42675 1.6061999999999996 Q 0.47700000000000004 1.6253249999999997 0.5115000000000001 1.6628249999999998 L 0.47700000000000004 1.6980749999999998 Q 0.41475 1.6365749999999997 0.31875000000000003 1.6365749999999997 Q 0.255 1.6365749999999997 0.203625 1.6646999999999996 Q 0.15225 1.6928249999999996 0.123 1.7426999999999997 Q 0.09375 1.7925749999999996 0.09375 1.8540749999999997 Q 0.09375 1.9155749999999996 0.123 1.9650749999999997 Q 0.15225 2.014575 0.20325000000000001 2.0430749999999995 Q 0.25425000000000003 2.0715749999999997 0.318 2.0715749999999997 Q 0.399 2.0715749999999997 0.45525 2.0310749999999995 L 0.45525 1.8540749999999997 M 0.9986326904296876 1.9358249999999997 L 0.6686326904296876 1.9358249999999997 Q 0.6731326904296877 1.9973249999999996 0.7158826904296877 2.0351999999999997 Q 0.7586326904296876 2.073075 0.8238826904296876 2.073075 Q 0.8606326904296877 2.073075 0.8913826904296877 2.0599499999999997 Q 0.9221326904296876 2.0468249999999997 0.9446326904296877 2.0213249999999996 L 0.9746326904296876 2.0558249999999996 Q 0.9483826904296877 2.0873249999999994 0.9090076904296877 2.1038249999999996 Q 0.8696326904296876 2.120325 0.8223826904296876 2.120325 Q 0.7616326904296876 2.120325 0.7147576904296876 2.0944499999999997 Q 0.6678826904296876 2.0685749999999996 0.6416326904296876 2.0228249999999997 Q 0.6153826904296876 1.9770749999999997 0.6153826904296876 1.9193249999999997 Q 0.6153826904296876 1.8615749999999998 0.6405076904296877 1.8158249999999996 Q 0.6656326904296876 1.7700749999999996 0.7095076904296876 1.7445749999999998 Q 0.7533826904296876 1.7190749999999997 0.8081326904296877 1.7190749999999997 Q 0.8628826904296877 1.7190749999999997 0.9063826904296877 1.7445749999999998 Q 0.9498826904296876 1.7700749999999996 0.9746326904296876 1.8154499999999996 Q 0.9993826904296876 1.8608249999999997 0.9993826904296876 1.9193249999999997 L 0.9986326904296876 1.9358249999999997 M 0.7125076904296876 1.8011999999999997 Q 0.6738826904296876 1.8375749999999997 0.6686326904296876 1.8960749999999997 L 0.9483826904296877 1.8960749999999997 Q 0.9431326904296877 1.8375749999999997 0.9045076904296876 1.8011999999999997 Q 0.8658826904296877 1.7648249999999996 0.8081326904296877 1.7648249999999996 Q 0.7511326904296877 1.7648249999999996 0.7125076904296876 1.8011999999999997 M 1.3170106201171876 2.0925749999999996 Q 1.3020106201171875 2.1060749999999997 1.2798856201171875 2.1131999999999995 Q 1.2577606201171876 2.120325 1.2337606201171876 2.120325 Q 1.1782606201171877 2.120325 1.1482606201171877 2.0903249999999995 Q 1.1182606201171876 2.0603249999999997 1.1182606201171876 2.0055749999999994 L 1.1182606201171876 1.7670749999999997 L 1.0477606201171876 1.7670749999999997 L 1.0477606201171876 1.7220749999999996 L 1.1182606201171876 1.7220749999999996 L 1.1182606201171876 1.6358249999999996 L 1.1715106201171877 1.6358249999999996 L 1.1715106201171877 1.7220749999999996 L 1.2915106201171875 1.7220749999999996 L 1.2915106201171875 1.7670749999999997 L 1.1715106201171877 1.7670749999999997 L 1.1715106201171877 2.0025749999999998 Q 1.1715106201171877 2.0378249999999998 1.1891356201171877 2.0561999999999996 Q 1.2067606201171877 2.074575 1.2397606201171876 2.074575 Q 1.2562606201171875 2.074575 1.2716356201171877 2.0693249999999996 Q 1.2870106201171876 2.0640749999999994 1.2982606201171876 2.0543249999999995 L 1.3170106201171876 2.0925749999999996 M 1.9440329589843752 1.7220749999999996 L 1.746782958984375 2.1638249999999997 Q 1.722782958984375 2.2193249999999995 1.6912829589843752 2.2425749999999995 Q 1.6597829589843751 2.2658249999999995 1.6155329589843752 2.2658249999999995 Q 1.5870329589843752 2.2658249999999995 1.5622829589843752 2.2568249999999996 Q 1.5375329589843751 2.2478249999999997 1.5195329589843751 2.2298249999999995 L 1.5442829589843752 2.1900749999999998 Q 1.5742829589843752 2.2200749999999996 1.6162829589843752 2.2200749999999996 Q 1.6432829589843752 2.2200749999999996 1.6624079589843752 2.2050749999999995 Q 1.6815329589843753 2.1900749999999998 1.6980329589843752 2.1540749999999997 L 1.7152829589843752 2.1158249999999996 L 1.5390329589843752 1.7220749999999996 L 1.594532958984375 1.7220749999999996 L 1.7430329589843752 2.0573249999999996 L 1.8915329589843752 1.7220749999999996 L 1.9440329589843752 1.7220749999999996 M 2.0673911132812504 2.0944499999999997 Q 2.0216411132812504 2.0685749999999996 1.9953911132812503 2.0228249999999997 Q 1.9691411132812502 1.9770749999999997 1.9691411132812502 1.9193249999999997 Q 1.9691411132812502 1.8615749999999998 1.9953911132812503 1.8158249999999996 Q 2.0216411132812504 1.7700749999999996 2.0673911132812504 1.7445749999999998 Q 2.1131411132812503 1.7190749999999997 2.1701411132812503 1.7190749999999997 Q 2.22714111328125 1.7190749999999997 2.27289111328125 1.7445749999999998 Q 2.31864111328125 1.7700749999999996 2.34451611328125 1.8158249999999996 Q 2.3703911132812503 1.8615749999999998 2.3703911132812503 1.9193249999999997 Q 2.3703911132812503 1.9770749999999997 2.34451611328125 2.0228249999999997 Q 2.31864111328125 2.0685749999999996 2.27289111328125 2.0944499999999997 Q 2.22714111328125 2.120325 2.1701411132812503 2.120325 Q 2.1131411132812503 2.120325 2.0673911132812504 2.0944499999999997 M 2.2455161132812504 2.0539499999999995 Q 2.2788911132812504 2.0348249999999997 2.29764111328125 1.9995749999999997 Q 2.3163911132812505 1.9643249999999997 2.3163911132812505 1.9193249999999997 Q 2.3163911132812505 1.8743249999999996 2.29764111328125 1.8390749999999996 Q 2.2788911132812504 1.8038249999999996 2.2455161132812504 1.7846999999999995 Q 2.21214111328125 1.7655749999999997 2.1701411132812503 1.7655749999999997 Q 2.1281411132812504 1.7655749999999997 2.09476611328125 1.7846999999999995 Q 2.06139111328125 1.8038249999999996 2.0422661132812503 1.8390749999999996 Q 2.02314111328125 1.8743249999999996 2.02314111328125 1.9193249999999997 Q 2.02314111328125 1.9643249999999997 2.0422661132812503 1.9995749999999997 Q 2.06139111328125 2.0348249999999997 2.09476611328125 2.0539499999999995 Q 2.1281411132812504 2.073075 2.1701411132812503 2.073075 Q 2.21214111328125 2.073075 2.2455161132812504 2.0539499999999995 M 2.8357767333984376 1.7220749999999996 L 2.8357767333984376 2.1165749999999997 L 2.784776733398438 2.1165749999999997 L 2.784776733398438 2.0445749999999996 Q 2.763776733398438 2.0805749999999996 2.727026733398438 2.1004499999999995 Q 2.690276733398438 2.120325 2.643026733398438 2.120325 Q 2.5657767333984376 2.120325 2.5211517333984377 2.0771999999999995 Q 2.4765267333984378 2.0340749999999996 2.4765267333984378 1.9508249999999996 L 2.4765267333984378 1.7220749999999996 L 2.5297767333984376 1.7220749999999996 L 2.5297767333984376 1.9455749999999996 Q 2.5297767333984376 2.0078249999999995 2.560526733398438 2.040075 Q 2.5912767333984377 2.0723249999999998 2.6482767333984376 2.0723249999999998 Q 2.7105267333984377 2.0723249999999998 2.746526733398438 2.0344499999999996 Q 2.782526733398438 1.9965749999999995 2.782526733398438 1.9290749999999997 L 2.782526733398438 1.7220749999999996 L 2.8357767333984376 1.7220749999999996 M 3.19764990234375 2.1064499999999997 Q 3.1537749023437502 2.0925749999999996 3.12902490234375 2.0715749999999997 L 3.15302490234375 2.0295749999999995 Q 3.1777749023437503 2.0490749999999998 3.2152749023437504 2.06145 Q 3.2527749023437504 2.073825 3.29327490234375 2.073825 Q 3.3472749023437505 2.073825 3.3731499023437506 2.0569499999999996 Q 3.39902490234375 2.040075 3.39902490234375 2.0093249999999996 Q 3.39902490234375 1.9875749999999996 3.38477490234375 1.9751999999999996 Q 3.3705249023437505 1.9628249999999996 3.3487749023437505 1.9564499999999996 Q 3.32702490234375 1.9500749999999996 3.29102490234375 1.9440749999999996 Q 3.2430249023437505 1.9350749999999997 3.2137749023437503 1.9256999999999995 Q 3.1845249023437505 1.9163249999999996 3.16389990234375 1.8938249999999996 Q 3.1432749023437503 1.8713249999999997 3.1432749023437503 1.8315749999999995 Q 3.1432749023437503 1.7820749999999996 3.1845249023437505 1.7505749999999995 Q 3.2257749023437503 1.7190749999999997 3.2992749023437504 1.7190749999999997 Q 3.3375249023437505 1.7190749999999997 3.37577490234375 1.7291999999999996 Q 3.4140249023437503 1.7393249999999996 3.4387749023437504 1.7558249999999997 L 3.4155249023437504 1.7985749999999996 Q 3.3667749023437503 1.7648249999999996 3.2992749023437504 1.7648249999999996 Q 3.2482749023437503 1.7648249999999996 3.22239990234375 1.7828249999999997 Q 3.1965249023437505 1.8008249999999997 3.1965249023437505 1.8300749999999997 Q 3.1965249023437505 1.8525749999999996 3.21114990234375 1.8660749999999997 Q 3.2257749023437503 1.8795749999999996 3.2475249023437502 1.8859499999999996 Q 3.26927490234375 1.8923249999999996 3.3075249023437503 1.8990749999999996 Q 3.3547749023437503 1.9080749999999997 3.3832749023437505 1.9170749999999996 Q 3.4117749023437502 1.9260749999999995 3.43202490234375 1.9478249999999997 Q 3.4522749023437505 1.9695749999999996 3.4522749023437505 2.0078249999999995 Q 3.4522749023437505 2.0595749999999997 3.40914990234375 2.0899499999999995 Q 3.3660249023437503 2.120325 3.2895249023437505 2.120325 Q 3.2415249023437505 2.120325 3.19764990234375 2.1064499999999997 M 3.87565283203125 1.7220749999999996 L 3.6784028320312503 2.1638249999999997 Q 3.6544028320312503 2.2193249999999995 3.6229028320312504 2.2425749999999995 Q 3.5914028320312505 2.2658249999999995 3.54715283203125 2.2658249999999995 Q 3.5186528320312505 2.2658249999999995 3.4939028320312504 2.2568249999999996 Q 3.4691528320312504 2.2478249999999997 3.4511528320312506 2.2298249999999995 L 3.47590283203125 2.1900749999999998 Q 3.5059028320312504 2.2200749999999996 3.5479028320312502 2.2200749999999996 Q 3.5749028320312504 2.2200749999999996 3.59402783203125 2.2050749999999995 Q 3.6131528320312505 2.1900749999999998 3.62965283203125 2.1540749999999997 L 3.6469028320312504 2.1158249999999996 L 3.4706528320312504 1.7220749999999996 L 3.5261528320312503 1.7220749999999996 L 3.6746528320312506 2.0573249999999996 L 3.8231528320312504 1.7220749999999996 L 3.87565283203125 1.7220749999999996 M 3.961160888671875 2.1064499999999997 Q 3.9172858886718753 2.0925749999999996 3.8925358886718753 2.0715749999999997 L 3.9165358886718753 2.0295749999999995 Q 3.9412858886718753 2.0490749999999998 3.9787858886718754 2.06145 Q 4.0162858886718755 2.073825 4.056785888671875 2.073825 Q 4.1107858886718756 2.073825 4.136660888671876 2.0569499999999996 Q 4.162535888671876 2.040075 4.162535888671876 2.0093249999999996 Q 4.162535888671876 1.9875749999999996 4.148285888671875 1.9751999999999996 Q 4.1340358886718755 1.9628249999999996 4.112285888671876 1.9564499999999996 Q 4.090535888671876 1.9500749999999996 4.054535888671875 1.9440749999999996 Q 4.006535888671875 1.9350749999999997 3.9772858886718754 1.9256999999999995 Q 3.9480358886718756 1.9163249999999996 3.9274108886718753 1.8938249999999996 Q 3.9067858886718754 1.8713249999999997 3.9067858886718754 1.8315749999999995 Q 3.9067858886718754 1.7820749999999996 3.9480358886718756 1.7505749999999995 Q 3.9892858886718754 1.7190749999999997 4.0627858886718755 1.7190749999999997 Q 4.101035888671875 1.7190749999999997 4.139285888671876 1.7291999999999996 Q 4.177535888671875 1.7393249999999996 4.2022858886718755 1.7558249999999997 L 4.1790358886718755 1.7985749999999996 Q 4.130285888671875 1.7648249999999996 4.0627858886718755 1.7648249999999996 Q 4.011785888671875 1.7648249999999996 3.9859108886718753 1.7828249999999997 Q 3.9600358886718756 1.8008249999999997 3.9600358886718756 1.8300749999999997 Q 3.9600358886718756 1.8525749999999996 3.9746608886718753 1.8660749999999997 Q 3.9892858886718754 1.8795749999999996 4.011035888671875 1.8859499999999996 Q 4.032785888671875 1.8923249999999996 4.071035888671876 1.8990749999999996 Q 4.118285888671876 1.9080749999999997 4.146785888671875 1.9170749999999996 Q 4.175285888671875 1.9260749999999995 4.195535888671875 1.9478249999999997 Q 4.215785888671875 1.9695749999999996 4.215785888671875 2.0078249999999995 Q 4.215785888671875 2.0595749999999997 4.172660888671875 2.0899499999999995 Q 4.129535888671875 2.120325 4.053035888671875 2.120325 Q 4.005035888671875 2.120325 3.961160888671875 2.1064499999999997 M 4.5229211425781255 2.0925749999999996 Q 4.507921142578126 2.1060749999999997 4.485796142578126 2.1131999999999995 Q 4.463671142578125 2.120325 4.439671142578126 2.120325 Q 4.384171142578126 2.120325 4.354171142578125 2.0903249999999995 Q 4.324171142578125 2.0603249999999997 4.324171142578125 2.0055749999999994 L 4.324171142578125 1.7670749999999997 L 4.253671142578125 1.7670749999999997 L 4.253671142578125 1.7220749999999996 L 4.324171142578125 1.7220749999999996 L 4.324171142578125 1.6358249999999996 L 4.377421142578125 1.6358249999999996 L 4.377421142578125 1.7220749999999996 L 4.497421142578125 1.7220749999999996 L 4.497421142578125 1.7670749999999997 L 4.377421142578125 1.7670749999999997 L 4.377421142578125 2.0025749999999998 Q 4.377421142578125 2.0378249999999998 4.395046142578125 2.0561999999999996 Q 4.412671142578126 2.074575 4.445671142578125 2.074575 Q 4.462171142578126 2.074575 4.4775461425781256 2.0693249999999996 Q 4.492921142578125 2.0640749999999994 4.504171142578126 2.0543249999999995 L 4.5229211425781255 2.0925749999999996 M 4.950064086914063 1.9358249999999997 L 4.620064086914063 1.9358249999999997 Q 4.624564086914063 1.9973249999999996 4.667314086914063 2.0351999999999997 Q 4.710064086914063 2.073075 4.775314086914063 2.073075 Q 4.812064086914063 2.073075 4.842814086914063 2.0599499999999997 Q 4.873564086914063 2.0468249999999997 4.896064086914063 2.0213249999999996 L 4.926064086914063 2.0558249999999996 Q 4.899814086914063 2.0873249999999994 4.860439086914063 2.1038249999999996 Q 4.821064086914063 2.120325 4.773814086914063 2.120325 Q 4.713064086914063 2.120325 4.666189086914063 2.0944499999999997 Q 4.619314086914063 2.0685749999999996 4.593064086914063 2.0228249999999997 Q 4.566814086914063 1.9770749999999997 4.566814086914063 1.9193249999999997 Q 4.566814086914063 1.8615749999999998 4.591939086914063 1.8158249999999996 Q 4.617064086914063 1.7700749999999996 4.660939086914063 1.7445749999999998 Q 4.704814086914063 1.7190749999999997 4.759564086914063 1.7190749999999997 Q 4.814314086914063 1.7190749999999997 4.857814086914063 1.7445749999999998 Q 4.901314086914063 1.7700749999999996 4.926064086914063 1.8154499999999996 Q 4.950814086914063 1.8608249999999997 4.950814086914063 1.9193249999999997 L 4.950064086914063 1.9358249999999997 M 4.663939086914063 1.8011999999999997 Q 4.625314086914063 1.8375749999999997 4.620064086914063 1.8960749999999997 L 4.899814086914063 1.8960749999999997 Q 4.894564086914063 1.8375749999999997 4.855939086914063 1.8011999999999997 Q 4.817314086914063 1.7648249999999996 4.759564086914063 1.7648249999999996 Q 4.702564086914063 1.7648249999999996 4.663939086914063 1.8011999999999997 M 5.669317016601563 1.7618249999999995 Q 5.711692016601563 1.8045749999999996 5.711692016601563 1.8878249999999996 L 5.711692016601563 2.1165749999999997 L 5.658442016601563 2.1165749999999997 L 5.658442016601563 1.8930749999999996 Q 5.658442016601563 1.8315749999999995 5.628817016601563 1.7993249999999996 Q 5.599192016601563 1.7670749999999997 5.545192016601563 1.7670749999999997 Q 5.483692016601563 1.7670749999999997 5.448442016601563 1.8049499999999996 Q 5.413192016601563 1.8428249999999997 5.413192016601563 1.9095749999999996 L 5.413192016601563 2.1165749999999997 L 5.359942016601563 2.1165749999999997 L 5.359942016601563 1.8930749999999996 Q 5.359942016601563 1.8315749999999995 5.330317016601563 1.7993249999999996 Q 5.300692016601563 1.7670749999999997 5.245942016601563 1.7670749999999997 Q 5.1851920166015635 1.7670749999999997 5.149567016601563 1.8049499999999996 Q 5.1139420166015634 1.8428249999999997 5.1139420166015634 1.9095749999999996 L 5.1139420166015634 2.1165749999999997 L 5.060692016601563 2.1165749999999997 L 5.060692016601563 1.7220749999999996 L 5.111692016601563 1.7220749999999996 L 5.111692016601563 1.7940749999999996 Q 5.132692016601563 1.7580749999999996 5.170192016601563 1.7385749999999995 Q 5.2076920166015634 1.7190749999999997 5.256442016601563 1.7190749999999997 Q 5.305942016601563 1.7190749999999997 5.342317016601563 1.7400749999999996 Q 5.378692016601563 1.7610749999999997 5.396692016601563 1.8023249999999997 Q 5.418442016601563 1.7633249999999996 5.459317016601563 1.7411999999999996 Q 5.500192016601563 1.7190749999999997 5.552692016601563 1.7190749999999997 Q 5.626942016601563 1.7190749999999997 5.669317016601563 1.7618249999999995 M 5.871422607421875 2.1064499999999997 Q 5.8275476074218755 2.0925749999999996 5.8027976074218754 2.0715749999999997 L 5.8267976074218755 2.0295749999999995 Q 5.8515476074218755 2.0490749999999998 5.889047607421875 2.06145 Q 5.926547607421876 2.073825 5.9670476074218755 2.073825 Q 6.021047607421876 2.073825 6.046922607421876 2.0569499999999996 Q 6.072797607421876 2.040075 6.072797607421876 2.0093249999999996 Q 6.072797607421876 1.9875749999999996 6.058547607421875 1.9751999999999996 Q 6.044297607421876 1.9628249999999996 6.022547607421876 1.9564499999999996 Q 6.000797607421876 1.9500749999999996 5.964797607421875 1.9440749999999996 Q 5.916797607421875 1.9350749999999997 5.887547607421876 1.9256999999999995 Q 5.858297607421876 1.9163249999999996 5.837672607421876 1.8938249999999996 Q 5.817047607421876 1.8713249999999997 5.817047607421876 1.8315749999999995 Q 5.817047607421876 1.7820749999999996 5.858297607421876 1.7505749999999995 Q 5.899547607421876 1.7190749999999997 5.973047607421876 1.7190749999999997 Q 6.011297607421875 1.7190749999999997 6.049547607421876 1.7291999999999996 Q 6.087797607421876 1.7393249999999996 6.112547607421876 1.7558249999999997 L 6.089297607421876 1.7985749999999996 Q 6.040547607421876 1.7648249999999996 5.973047607421876 1.7648249999999996 Q 5.9220476074218755 1.7648249999999996 5.896172607421875 1.7828249999999997 Q 5.870297607421875 1.8008249999999997 5.870297607421875 1.8300749999999997 Q 5.870297607421875 1.8525749999999996 5.884922607421876 1.8660749999999997 Q 5.899547607421876 1.8795749999999996 5.9212976074218755 1.8859499999999996 Q 5.943047607421875 1.8923249999999996 5.981297607421876 1.8990749999999996 Q 6.028547607421876 1.9080749999999997 6.057047607421875 1.9170749999999996 Q 6.0855476074218755 1.9260749999999995 6.105797607421875 1.9478249999999997 Q 6.126047607421875 1.9695749999999996 6.126047607421875 2.0078249999999995 Q 6.126047607421875 2.0595749999999997 6.082922607421875 2.0899499999999995 Q 6.0397976074218755 2.120325 5.963297607421875 2.120325 Q 5.915297607421875 2.120325 5.871422607421875 2.1064499999999997 M 6.783075805664064 1.5600749999999997 L 6.783075805664064 2.1165749999999997 L 6.7320758056640635 2.1165749999999997 L 6.7320758056640635 2.038575 Q 6.7080758056640635 2.0783249999999995 6.668700805664063 2.0993249999999994 Q 6.629325805664063 2.120325 6.579825805664063 2.120325 Q 6.524325805664064 2.120325 6.479325805664063 2.0948249999999997 Q 6.434325805664063 2.0693249999999996 6.408825805664063 2.0235749999999997 Q 6.383325805664064 1.9778249999999997 6.383325805664064 1.9193249999999997 Q 6.383325805664064 1.8608249999999997 6.408825805664063 1.8150749999999998 Q 6.434325805664063 1.7693249999999996 6.479325805664063 1.7441999999999998 Q 6.524325805664064 1.7190749999999997 6.579825805664063 1.7190749999999997 Q 6.627825805664063 1.7190749999999997 6.666450805664063 1.7389499999999996 Q 6.705075805664063 1.7588249999999996 6.729825805664063 1.7970749999999995 L 6.729825805664063 1.5600749999999997 L 6.783075805664064 1.5600749999999997 M 6.658950805664063 2.0539499999999995 Q 6.692325805664063 2.0348249999999997 6.711450805664064 1.9995749999999997 Q 6.730575805664063 1.9643249999999997 6.730575805664063 1.9193249999999997 Q 6.730575805664063 1.8743249999999996 6.711450805664064 1.8390749999999996 Q 6.692325805664063 1.8038249999999996 6.658950805664063 1.7846999999999995 Q 6.625575805664063 1.7655749999999997 6.584325805664063 1.7655749999999997 Q 6.542325805664063 1.7655749999999997 6.508950805664063 1.7846999999999995 Q 6.4755758056640635 1.8038249999999996 6.456450805664063 1.8390749999999996 Q 6.437325805664063 1.8743249999999996 6.437325805664063 1.9193249999999997 Q 6.437325805664063 1.9643249999999997 6.456450805664063 1.9995749999999997 Q 6.4755758056640635 2.0348249999999997 6.508950805664063 2.0539499999999995 Q 6.542325805664063 2.073075 6.584325805664063 2.073075 Q 6.625575805664063 2.073075 6.658950805664063 2.0539499999999995 M 7.276184692382813 1.9358249999999997 L 6.946184692382813 1.9358249999999997 Q 6.950684692382813 1.9973249999999996 6.993434692382813 2.0351999999999997 Q 7.036184692382813 2.073075 7.1014346923828136 2.073075 Q 7.138184692382813 2.073075 7.1689346923828134 2.0599499999999997 Q 7.199684692382813 2.0468249999999997 7.222184692382813 2.0213249999999996 L 7.252184692382813 2.0558249999999996 Q 7.225934692382813 2.0873249999999994 7.186559692382813 2.1038249999999996 Q 7.1471846923828135 2.120325 7.0999346923828135 2.120325 Q 7.039184692382813 2.120325 6.992309692382813 2.0944499999999997 Q 6.945434692382813 2.0685749999999996 6.919184692382813 2.0228249999999997 Q 6.892934692382814 1.9770749999999997 6.892934692382814 1.9193249999999997 Q 6.892934692382814 1.8615749999999998 6.918059692382813 1.8158249999999996 Q 6.943184692382813 1.7700749999999996 6.987059692382813 1.7445749999999998 Q 7.0309346923828135 1.7190749999999997 7.085684692382813 1.7190749999999997 Q 7.140434692382813 1.7190749999999997 7.183934692382813 1.7445749999999998 Q 7.227434692382813 1.7700749999999996 7.252184692382813 1.8154499999999996 Q 7.276934692382813 1.8608249999999997 7.276934692382813 1.9193249999999997 L 7.276184692382813 1.9358249999999997 M 6.990059692382813 1.8011999999999997 Q 6.951434692382813 1.8375749999999997 6.946184692382813 1.8960749999999997 L 7.225934692382813 1.8960749999999997 Q 7.220684692382814 1.8375749999999997 7.182059692382813 1.8011999999999997 Q 7.143434692382813 1.7648249999999996 7.085684692382813 1.7648249999999996 Q 7.0286846923828135 1.7648249999999996 6.990059692382813 1.8011999999999997 M 7.400687622070313 2.1064499999999997 Q 7.356812622070313 2.0925749999999996 7.332062622070313 2.0715749999999997 L 7.356062622070313 2.0295749999999995 Q 7.380812622070313 2.0490749999999998 7.418312622070313 2.06145 Q 7.455812622070313 2.073825 7.496312622070313 2.073825 Q 7.550312622070313 2.073825 7.5761876220703135 2.0569499999999996 Q 7.602062622070314 2.040075 7.602062622070314 2.0093249999999996 Q 7.602062622070314 1.9875749999999996 7.587812622070313 1.9751999999999996 Q 7.573562622070313 1.9628249999999996 7.5518126220703135 1.9564499999999996 Q 7.5300626220703135 1.9500749999999996 7.494062622070313 1.9440749999999996 Q 7.446062622070313 1.9350749999999997 7.416812622070314 1.9256999999999995 Q 7.3875626220703134 1.9163249999999996 7.3669376220703136 1.8938249999999996 Q 7.346312622070314 1.8713249999999997 7.346312622070314 1.8315749999999995 Q 7.346312622070314 1.7820749999999996 7.3875626220703134 1.7505749999999995 Q 7.428812622070313 1.7190749999999997 7.502312622070313 1.7190749999999997 Q 7.540562622070313 1.7190749999999997 7.578812622070314 1.7291999999999996 Q 7.617062622070313 1.7393249999999996 7.641812622070313 1.7558249999999997 L 7.618562622070313 1.7985749999999996 Q 7.569812622070313 1.7648249999999996 7.502312622070313 1.7648249999999996 Q 7.451312622070313 1.7648249999999996 7.425437622070313 1.7828249999999997 Q 7.399562622070313 1.8008249999999997 7.399562622070313 1.8300749999999997 Q 7.399562622070313 1.8525749999999996 7.414187622070314 1.8660749999999997 Q 7.428812622070313 1.8795749999999996 7.450562622070313 1.8859499999999996 Q 7.472312622070313 1.8923249999999996 7.510562622070314 1.8990749999999996 Q 7.557812622070314 1.9080749999999997 7.586312622070313 1.9170749999999996 Q 7.614812622070313 1.9260749999999995 7.635062622070313 1.9478249999999997 Q 7.655312622070313 1.9695749999999996 7.655312622070313 2.0078249999999995 Q 7.655312622070313 2.0595749999999997 7.612187622070313 2.0899499999999995 Q 7.569062622070313 2.120325 7.492562622070313 2.120325 Q 7.444562622070313 2.120325 7.400687622070313 2.1064499999999997 M 7.7546978759765635 1.7220749999999996 L 7.807947875976564 1.7220749999999996 L 7.807947875976564 2.1165749999999997 L 7.7546978759765635 2.1165749999999997 L 7.7546978759765635 1.7220749999999996 M 7.753947875976563 1.6245749999999997 Q 7.742697875976563 1.6133249999999997 7.742697875976563 1.5975749999999995 Q 7.742697875976563 1.5825749999999996 7.753947875976563 1.5713249999999996 Q 7.765197875976563 1.5600749999999997 7.781697875976564 1.5600749999999997 Q 7.798197875976563 1.5600749999999997 7.809447875976563 1.5709499999999996 Q 7.820697875976563 1.5818249999999996 7.820697875976563 1.5968249999999995 Q 7.820697875976563 1.6133249999999997 7.809447875976563 1.6245749999999997 Q 7.798197875976563 1.6358249999999996 7.781697875976564 1.6358249999999996 Q 7.765197875976563 1.6358249999999996 7.753947875976563 1.6245749999999997 M 8.322809326171877 1.7220749999999996 L 8.322809326171877 2.0685749999999996 Q 8.322809326171877 2.169075 8.273684326171876 2.2174499999999995 Q 8.224559326171876 2.2658249999999995 8.125559326171876 2.2658249999999995 Q 8.070809326171876 2.2658249999999995 8.021684326171876 2.2497 Q 7.972559326171876 2.2335749999999996 7.941809326171876 2.2050749999999995 L 7.9688093261718755 2.1645749999999997 Q 7.997309326171876 2.1900749999999998 8.038184326171876 2.204325 Q 8.079059326171876 2.2185749999999995 8.124059326171876 2.2185749999999995 Q 8.199059326171875 2.2185749999999995 8.234309326171877 2.1836999999999995 Q 8.269559326171876 2.1488249999999995 8.269559326171876 2.075325 L 8.269559326171876 2.0250749999999997 Q 8.244809326171875 2.062575 8.204684326171876 2.0820749999999997 Q 8.164559326171876 2.1015749999999995 8.115809326171876 2.1015749999999995 Q 8.060309326171875 2.1015749999999995 8.014934326171876 2.0771999999999995 Q 7.969559326171876 2.0528249999999995 7.9436843261718755 2.0089499999999996 Q 7.917809326171876 1.9650749999999997 7.917809326171876 1.9095749999999996 Q 7.917809326171876 1.8540749999999997 7.9436843261718755 1.8105749999999996 Q 7.969559326171876 1.7670749999999997 8.014559326171875 1.7430749999999997 Q 8.059559326171875 1.7190749999999997 8.115809326171876 1.7190749999999997 Q 8.166059326171876 1.7190749999999997 8.206559326171876 1.7393249999999996 Q 8.247059326171875 1.7595749999999997 8.271809326171876 1.7978249999999996 L 8.271809326171876 1.7220749999999996 L 8.322809326171877 1.7220749999999996 M 8.198309326171875 2.0359499999999997 Q 8.232809326171877 2.0175749999999995 8.251934326171876 1.9845749999999995 Q 8.271059326171876 1.9515749999999996 8.271059326171876 1.9095749999999996 Q 8.271059326171876 1.8675749999999995 8.251934326171876 1.8349499999999996 Q 8.232809326171877 1.8023249999999997 8.198684326171875 1.7839499999999997 Q 8.164559326171876 1.7655749999999997 8.121059326171876 1.7655749999999997 Q 8.078309326171876 1.7655749999999997 8.044184326171877 1.7835749999999997 Q 8.010059326171875 1.8015749999999997 7.9909343261718755 1.8345749999999996 Q 7.971809326171876 1.8675749999999995 7.971809326171876 1.9095749999999996 Q 7.971809326171876 1.9515749999999996 7.9909343261718755 1.9845749999999995 Q 8.010059326171875 2.0175749999999995 8.044184326171877 2.0359499999999997 Q 8.078309326171876 2.0543249999999995 8.121059326171876 2.0543249999999995 Q 8.163809326171876 2.0543249999999995 8.198309326171875 2.0359499999999997 M 8.792289916992189 1.7621999999999995 Q 8.836164916992189 1.8053249999999996 8.836164916992189 1.8878249999999996 L 8.836164916992189 2.1165749999999997 L 8.782914916992189 2.1165749999999997 L 8.782914916992189 1.8930749999999996 Q 8.782914916992189 1.8315749999999995 8.752164916992188 1.7993249999999996 Q 8.721414916992188 1.7670749999999997 8.664414916992188 1.7670749999999997 Q 8.600664916992189 1.7670749999999997 8.563539916992188 1.8049499999999996 Q 8.526414916992188 1.8428249999999997 8.526414916992188 1.9095749999999996 L 8.526414916992188 2.1165749999999997 L 8.473164916992188 2.1165749999999997 L 8.473164916992188 1.7220749999999996 L 8.524164916992188 1.7220749999999996 L 8.524164916992188 1.7948249999999997 Q 8.545914916992189 1.7588249999999996 8.584539916992188 1.7389499999999996 Q 8.623164916992188 1.7190749999999997 8.674164916992188 1.7190749999999997 Q 8.74841491699219 1.7190749999999997 8.792289916992189 1.7621999999999995 M 9.758684326171876 1.7220749999999996 L 9.609434326171876 2.1165749999999997 L 9.559184326171875 2.1165749999999997 L 9.434684326171876 1.7933249999999996 L 9.310184326171877 2.1165749999999997 L 9.259934326171877 2.1165749999999997 L 9.111434326171876 1.7220749999999996 L 9.162434326171876 1.7220749999999996 L 9.286184326171876 2.0573249999999996 L 9.412934326171875 1.7220749999999996 L 9.458684326171875 1.7220749999999996 L 9.584684326171876 2.0573249999999996 L 9.709934326171876 1.7220749999999996 L 9.758684326171876 1.7220749999999996 M 9.84008056640625 1.7220749999999996 L 9.89333056640625 1.7220749999999996 L 9.89333056640625 2.1165749999999997 L 9.84008056640625 2.1165749999999997 L 9.84008056640625 1.7220749999999996 M 9.83933056640625 1.6245749999999997 Q 9.828080566406252 1.6133249999999997 9.828080566406252 1.5975749999999995 Q 9.828080566406252 1.5825749999999996 9.83933056640625 1.5713249999999996 Q 9.85058056640625 1.5600749999999997 9.867080566406251 1.5600749999999997 Q 9.88358056640625 1.5600749999999997 9.89483056640625 1.5709499999999996 Q 9.906080566406251 1.5818249999999996 9.906080566406251 1.5968249999999995 Q 9.906080566406251 1.6133249999999997 9.89483056640625 1.6245749999999997 Q 9.88358056640625 1.6358249999999996 9.867080566406251 1.6358249999999996 Q 9.85058056640625 1.6358249999999996 9.83933056640625 1.6245749999999997 M 10.250692016601564 2.0925749999999996 Q 10.235692016601563 2.1060749999999997 10.213567016601564 2.1131999999999995 Q 10.191442016601563 2.120325 10.167442016601564 2.120325 Q 10.111942016601564 2.120325 10.081942016601564 2.0903249999999995 Q 10.051942016601563 2.0603249999999997 10.051942016601563 2.0055749999999994 L 10.051942016601563 1.7670749999999997 L 9.981442016601564 1.7670749999999997 L 9.981442016601564 1.7220749999999996 L 10.051942016601563 1.7220749999999996 L 10.051942016601563 1.6358249999999996 L 10.105192016601563 1.6358249999999996 L 10.105192016601563 1.7220749999999996 L 10.225192016601564 1.7220749999999996 L 10.225192016601564 1.7670749999999997 L 10.105192016601563 1.7670749999999997 L 10.105192016601563 2.0025749999999998 Q 10.105192016601563 2.0378249999999998 10.122817016601564 2.0561999999999996 Q 10.140442016601563 2.074575 10.173442016601564 2.074575 Q 10.189942016601563 2.074575 10.205317016601564 2.0693249999999996 Q 10.220692016601564 2.0640749999999994 10.231942016601563 2.0543249999999995 L 10.250692016601564 2.0925749999999996 M 10.667696411132814 1.7621999999999995 Q 10.711571411132814 1.8053249999999996 10.711571411132814 1.8878249999999996 L 10.711571411132814 2.1165749999999997 L 10.658321411132814 2.1165749999999997 L 10.658321411132814 1.8930749999999996 Q 10.658321411132814 1.8315749999999995 10.627571411132813 1.7993249999999996 Q 10.596821411132813 1.7670749999999997 10.539821411132813 1.7670749999999997 Q 10.476071411132814 1.7670749999999997 10.438946411132813 1.8049499999999996 Q 10.401821411132813 1.8428249999999997 10.401821411132813 1.9095749999999996 L 10.401821411132813 2.1165749999999997 L 10.348571411132813 2.1165749999999997 L 10.348571411132813 1.5600749999999997 L 10.401821411132813 1.5600749999999997 L 10.401821411132813 1.7910749999999998 Q 10.423571411132814 1.7565749999999998 10.461821411132814 1.7378249999999995 Q 10.500071411132813 1.7190749999999997 10.549571411132813 1.7190749999999997 Q 10.623821411132814 1.7190749999999997 10.667696411132814 1.7621999999999995 M 11.395590820312501 1.9763249999999997 L 11.1030908203125 1.9763249999999997 L 11.040090820312502 2.1165749999999997 L 10.982340820312501 2.1165749999999997 L 11.222340820312501 1.5915749999999997 L 11.277090820312502 1.5915749999999997 L 11.517090820312502 2.1165749999999997 L 11.458590820312502 2.1165749999999997 L 11.395590820312501 1.9763249999999997 M 11.375340820312502 1.9313249999999997 L 11.2493408203125 1.6493249999999997 L 11.123340820312501 1.9313249999999997 L 11.375340820312502 1.9313249999999997 M 11.605200805664063 1.5915749999999997 L 11.660700805664064 1.5915749999999997 L 11.660700805664064 2.1165749999999997 L 11.605200805664063 2.1165749999999997 L 11.605200805664063 1.5915749999999997" fill="#d7bb90" fill-rule="nonzero"></path></g></g><defs><clipPath id="SvgjsClipPath47721"><path d=" M 0 -6.178277247794755 h 6.573904935530122 v 5.928277247794755 h -6.573904935530122 Z"></path></clipPath><clipPath id="SvgjsClipPath4771910602f79-ad3f-4f18-b04d-f78fa97052cc"><path d=" M 0 -6.178277247794754 L 6.573904935530122 -6.178277247794754 L 6.573904935530122 -0.25 L 0 -0.25 Z"></path></clipPath></defs></svg>